<svg width="194" height="38" viewBox="0 0 194 38" fill="none" xmlns="http://www.w3.org/2000/svg">
<path d="M41.6687 1.16784C43.9249 1.16784 45.754 2.99688 45.754 5.25311V32.8225C45.754 35.0788 43.9249 36.9078 41.6687 36.9078H40.4901C38.2338 36.9078 36.4048 35.0788 36.4048 32.8225V5.25311C36.4048 2.99688 38.2338 1.16784 40.4901 1.16784H41.6687Z" fill="#6BB2FC"/>
<path d="M77.7893 14.4469C75.6718 14.4469 74.0757 12.6454 72.7474 10.9963C71.6662 9.65401 69.9527 8.86872 67.7 8.86872C62.7794 8.86872 59.9746 12.6698 59.9746 19.0378C59.9746 25.7514 62.8286 29.2069 67.6508 29.2069C69.8029 29.2069 71.4958 28.4981 72.613 27.2504C73.9669 25.7384 75.5531 24.0887 77.5826 24.1098L79.1637 24.1262C81.532 24.1508 83.4101 26.2262 82.4578 28.3947C80.3688 33.1518 75.3675 37.4015 67.454 37.4015C57.6619 37.4015 50.3302 30.8853 50.3302 19.0378C50.3302 7.14096 57.8587 0.674194 67.454 0.674194C74.7227 0.674194 80.3676 4.03212 82.5936 10.0932C83.4211 12.3462 81.4769 14.4469 79.0767 14.4469H77.7893Z" fill="#6BB2FC"/>
<path d="M92.1567 36.9078C89.9004 36.9078 88.0714 35.0788 88.0714 32.8225V5.25311C88.0714 2.99688 89.9004 1.16784 92.1567 1.16784H93.3353C95.5915 1.16784 97.4206 2.99688 97.4206 5.25311V15.4513C97.4206 15.6327 97.5676 15.7798 97.749 15.7798C97.8521 15.7798 97.9491 15.7314 98.0112 15.6491L107.709 2.79292C108.481 1.76954 109.689 1.16784 110.97 1.16784H111.637C115.022 1.16784 116.938 5.04808 114.881 7.73601L109.43 14.8581C108.393 16.2135 108.307 18.071 109.216 19.5159L116.217 30.6477C117.928 33.3682 115.973 36.9078 112.759 36.9078H111.237C109.808 36.9078 108.483 36.1608 107.743 34.9381L102.97 27.054C101.884 25.2595 99.3358 25.1116 98.0492 26.7684C97.6418 27.2931 97.4206 27.9385 97.4206 28.6028V32.8225C97.4206 35.0788 95.5916 36.9078 93.3353 36.9078H92.1567Z" fill="#6BB2FC"/>
<path d="M166.003 36.9078C163.747 36.9078 161.918 35.0788 161.918 32.8225V5.25311C161.918 2.99688 163.747 1.16784 166.003 1.16784H167.182C169.438 1.16784 171.267 2.99688 171.267 5.25311V15.4513C171.267 15.6327 171.414 15.7798 171.595 15.7798C171.698 15.7798 171.795 15.7314 171.858 15.6491L181.555 2.79292C182.327 1.76954 183.535 1.16784 184.817 1.16784H185.483C188.868 1.16784 190.784 5.04807 188.727 7.73601L183.276 14.8581C182.239 16.2135 182.154 18.071 183.062 19.5159L190.063 30.6477C191.774 33.3682 189.819 36.9078 186.605 36.9078H185.084C183.654 36.9078 182.329 36.1608 181.589 34.9381L176.816 27.054C175.73 25.2595 173.182 25.1116 171.896 26.7684C171.488 27.2931 171.267 27.9385 171.267 28.6029V32.8225C171.267 35.0788 169.438 36.9078 167.182 36.9078H166.003Z" fill="#6BB2FC"/>
<path d="M156.358 18.3636C156.358 28.5056 148.136 36.7273 137.994 36.7273C127.853 36.7273 119.631 28.5056 119.631 18.3636C119.631 8.22168 127.853 0 137.994 0C148.136 0 156.358 8.22168 156.358 18.3636ZM129.555 18.3636C129.555 23.0248 133.333 26.8034 137.994 26.8034C142.656 26.8034 146.434 23.0248 146.434 18.3636C146.434 13.7025 142.656 9.92385 137.994 9.92385C133.333 9.92385 129.555 13.7025 129.555 18.3636Z" fill="#6BB2FC"/>
<path fill-rule="evenodd" clip-rule="evenodd" d="M19.0557 2.47418C19.0432 2.47414 19.0307 2.47412 19.0183 2.47412V2.47418H4.71984C2.66543 2.47418 1 4.13961 1 6.19402C1 6.43746 1.02338 6.67543 1.06803 6.90583C1.02338 7.13622 1 7.37419 1 7.61763V18.5156V18.7771V22.2358V25.9553V33.3953C1 35.4497 2.66543 37.1152 4.71984 37.1152C6.77425 37.1152 8.43968 35.4497 8.43968 33.3953L8.43968 25.9553H19.0183V25.9556C19.0466 25.9556 19.0749 25.9555 19.1032 25.9553H19.1342V25.955C20.6366 25.9402 22.1225 25.6371 23.5112 25.0619C24.9357 24.4719 26.23 23.607 27.3202 22.5168C28.4104 21.4266 29.2753 20.1323 29.8653 18.7078C30.4553 17.2834 30.759 15.7567 30.759 14.2149C30.759 12.673 30.4553 11.1463 29.8653 9.72187C29.2753 8.29742 28.4104 7.00313 27.3202 5.9129C26.23 4.82268 24.9357 3.95786 23.5112 3.36783C22.1225 2.7926 20.6366 2.48953 19.1342 2.47469V2.47418H19.0557ZM19.1342 9.90386V9.91386H8.43968L8.43968 18.5156H19.1342V18.5259C19.661 18.5117 20.1811 18.4011 20.6686 18.1991C21.1918 17.9824 21.6672 17.6648 22.0677 17.2643C22.4681 16.8638 22.7858 16.3884 23.0025 15.8652C23.2193 15.342 23.3308 14.7812 23.3308 14.2149C23.3308 13.6485 23.2193 13.0877 23.0025 12.5645C22.7858 12.0413 22.4681 11.5659 22.0677 11.1654C21.6672 10.765 21.1918 10.4473 20.6686 10.2306C20.1811 10.0287 19.661 9.91803 19.1342 9.90386Z" fill="#6BB2FC"/>
</svg>
