<svg width="194" height="38" viewBox="0 0 194 38" fill="none" xmlns="http://www.w3.org/2000/svg">
<path d="M41.6685 1.16796C43.9247 1.16796 45.7537 2.997 45.7537 5.25324V32.8227C45.7537 35.0789 43.9247 36.9079 41.6685 36.9079H40.4898C38.2336 36.9079 36.4045 35.0789 36.4045 32.8227V5.25323C36.4045 2.997 38.2336 1.16796 40.4898 1.16796H41.6685Z" fill="#6BB2FC"/>
<path d="M77.7891 14.447C75.6716 14.447 74.0755 12.6456 72.7472 10.9965C71.666 9.65413 69.9525 8.86884 67.6997 8.86884C62.7791 8.86884 59.9744 12.6699 59.9744 19.038C59.9744 25.7515 62.8283 29.2071 67.6505 29.2071C69.8027 29.2071 71.4955 28.4983 72.6128 27.2505C73.9667 25.7385 75.5529 24.0888 77.5824 24.1099L79.1635 24.1263C81.5318 24.1509 83.4099 26.2263 82.4576 28.3948C80.3685 33.152 75.3672 37.4016 67.4537 37.4016C57.6617 37.4016 50.3299 30.8855 50.3299 19.038C50.3299 7.14108 57.8585 0.674316 67.4537 0.674316C74.7225 0.674316 80.3674 4.03225 82.5934 10.0933C83.4208 12.3463 81.4767 14.447 79.0765 14.447H77.7891Z" fill="#6BB2FC"/>
<path d="M92.1564 36.9079C89.9002 36.9079 88.0712 35.0789 88.0712 32.8227V5.25323C88.0712 2.997 89.9002 1.16796 92.1564 1.16796H93.3351C95.5913 1.16796 97.4203 2.997 97.4203 5.25324V15.4515C97.4203 15.6328 97.5674 15.7799 97.7488 15.7799C97.8518 15.7799 97.9489 15.7315 98.011 15.6492L107.709 2.79305C108.481 1.76966 109.688 1.16796 110.97 1.16796H111.637C115.021 1.16796 116.938 5.0482 114.881 7.73613L109.43 14.8582C108.393 16.2137 108.307 18.0711 109.216 19.516L116.217 30.6478C117.928 33.3684 115.972 36.9079 112.758 36.9079H111.237C109.808 36.9079 108.482 36.1609 107.742 34.9382L102.97 27.0542C101.884 25.2596 99.3356 25.1117 98.049 26.7685C97.6415 27.2932 97.4203 27.9386 97.4203 28.603V32.8227C97.4203 35.0789 95.5913 36.9079 93.3351 36.9079H92.1564Z" fill="#6BB2FC"/>
<path d="M166.003 36.9079C163.746 36.9079 161.917 35.0789 161.917 32.8227V5.25323C161.917 2.997 163.746 1.16796 166.003 1.16796H167.181C169.438 1.16796 171.267 2.997 171.267 5.25324V15.4515C171.267 15.6328 171.414 15.7799 171.595 15.7799C171.698 15.7799 171.795 15.7315 171.857 15.6492L181.555 2.79304C182.327 1.76966 183.535 1.16796 184.817 1.16796H185.483C188.868 1.16796 190.784 5.0482 188.727 7.73613L183.276 14.8582C182.239 16.2137 182.154 18.0711 183.062 19.516L190.063 30.6478C191.774 33.3684 189.819 36.9079 186.605 36.9079H185.083C183.654 36.9079 182.329 36.1609 181.589 34.9382L176.816 27.0542C175.73 25.2596 173.182 25.1117 171.895 26.7685C171.488 27.2932 171.267 27.9386 171.267 28.603V32.8227C171.267 35.0789 169.438 36.9079 167.181 36.9079H166.003Z" fill="#6BB2FC"/>
<path d="M156.358 18.3636C156.358 28.5056 148.136 36.7273 137.994 36.7273C127.852 36.7273 119.631 28.5056 119.631 18.3636C119.631 8.22168 127.852 0 137.994 0C148.136 0 156.358 8.22168 156.358 18.3636ZM129.554 18.3636C129.554 23.0248 133.333 26.8034 137.994 26.8034C142.655 26.8034 146.434 23.0248 146.434 18.3636C146.434 13.7025 142.655 9.92385 137.994 9.92385C133.333 9.92385 129.554 13.7025 129.554 18.3636Z" fill="#6BB2FC"/>
<path fill-rule="evenodd" clip-rule="evenodd" d="M19.0557 2.47418C19.0432 2.47414 19.0307 2.47412 19.0183 2.47412V2.47418H4.71984C2.66543 2.47418 1 4.13961 1 6.19402C1 6.43746 1.02338 6.67543 1.06803 6.90583C1.02338 7.13622 1 7.37419 1 7.61763V18.5156V18.7771V22.2358V25.9553V33.3953C1 35.4497 2.66543 37.1152 4.71984 37.1152C6.77425 37.1152 8.43968 35.4497 8.43968 33.3953L8.43968 25.9553H19.0183V25.9556C19.0466 25.9556 19.0749 25.9555 19.1032 25.9553H19.1342V25.955C20.6366 25.9402 22.1225 25.6371 23.5112 25.0619C24.9357 24.4719 26.23 23.607 27.3202 22.5168C28.4104 21.4266 29.2753 20.1323 29.8653 18.7078C30.4553 17.2834 30.759 15.7567 30.759 14.2149C30.759 12.673 30.4553 11.1463 29.8653 9.72187C29.2753 8.29742 28.4104 7.00313 27.3202 5.9129C26.23 4.82268 24.9357 3.95786 23.5112 3.36783C22.1225 2.7926 20.6366 2.48953 19.1342 2.47469V2.47418H19.0557ZM19.1342 9.90386V9.91386H8.43968L8.43968 18.5156H19.1342V18.5259C19.661 18.5117 20.1811 18.4011 20.6686 18.1991C21.1918 17.9824 21.6672 17.6648 22.0677 17.2643C22.4681 16.8638 22.7858 16.3884 23.0025 15.8652C23.2193 15.342 23.3308 14.7812 23.3308 14.2149C23.3308 13.6485 23.2193 13.0877 23.0025 12.5645C22.7858 12.0413 22.4681 11.5659 22.0677 11.1654C21.6672 10.765 21.1918 10.4473 20.6686 10.2306C20.1811 10.0287 19.661 9.91803 19.1342 9.90386Z" fill="#6BB2FC"/>
</svg>
