<svg width="24" height="24" viewBox="0 0 24 24" fill="none" xmlns="http://www.w3.org/2000/svg">
<path d="M8.65511 3.29191C9.55319 1.90052 11.1217 0.989788 12.8925 0.989788C15.688 0.989788 17.9522 3.25397 17.9522 6.04941C17.9522 7.82027 17.0414 9.38876 15.65 10.2868L8.65511 3.29191ZM23.0118 17.6486C22.9865 16.2572 22.2149 14.9796 20.9753 14.3345C20.2922 13.9804 19.5459 13.6515 18.7364 13.3732L23.0118 17.6486ZM23.6316 21.8481L2.1535 0.369985C1.66019 -0.123328 0.863297 -0.123328 0.369985 0.369985C-0.123328 0.863297 -0.123328 1.66019 0.369985 2.1535L10.7169 12.5004C8.41478 12.7914 6.40358 13.5123 4.77185 14.3472C3.53225 15.0049 2.7733 16.3078 2.7733 17.7118V21.2283H19.4321L21.8354 23.6316C22.3287 24.1249 23.1256 24.1249 23.6189 23.6316C24.1249 23.1383 24.1249 22.3414 23.6316 21.8481Z" fill="#212121"/>
</svg>
