<svg width="24" height="24" viewBox="0 0 24 24" fill="none" xmlns="http://www.w3.org/2000/svg">
<path d="M21.5 10.89C21.78 10.89 22 10.67 22 10.39V9.15C22 8.99 21.92 8.83 21.79 8.74L12.57 2.29C12.23 2.05 11.77 2.05 11.42 2.29L2.21 8.74C2.08 8.83 2 8.99 2 9.15V10.39C2 10.67 2.22 10.89 2.5 10.89H4V19.89H3C2.45 19.89 2 20.34 2 20.89C2 21.44 2.45 21.89 3 21.89H21C21.55 21.89 22 21.44 22 20.89C22 20.34 21.55 19.89 21 19.89H20V10.89H21.5ZM16 16.89C16 17.44 15.55 17.89 15 17.89C14.45 17.89 14 17.44 14 16.89V13.89L12.83 15.64C12.43 16.23 11.56 16.23 11.17 15.64L10 13.89V16.89C10 17.44 9.55 17.89 9 17.89C8.45 17.89 8 17.44 8 16.89V12.19C8 11.47 8.58 10.89 9.3 10.89C9.73 10.89 10.14 11.11 10.38 11.47L12 13.89L13.61 11.47C13.86 11.11 14.26 10.89 14.7 10.89C15.42 10.89 16 11.47 16 12.19V16.89Z" fill="white"/>
</svg>
