<svg width="20" height="18" viewBox="0 0 20 18" fill="none" xmlns="http://www.w3.org/2000/svg">
<path d="M18 2H15.2704C14.9898 2 14.7221 1.88209 14.5327 1.67506L13.2973 0.324944C13.1079 0.117911 12.8402 0 12.5596 0H7.44044C7.15982 0 6.89211 0.11791 6.70268 0.324944L5.46732 1.67506C5.27789 1.88209 5.01018 2 4.72956 2H2C0.9 2 0 2.9 0 4V16C0 17.1 0.9 18 2 18H18C19.1 18 20 17.1 20 16V4C20 2.9 19.1 2 18 2ZM18 15C18 15.5523 17.5523 16 17 16H3C2.44772 16 2 15.5523 2 15V5C2 4.44771 2.44772 4 3 4H5.60717C5.88918 4 6.15809 3.88092 6.34763 3.67211L6.64 3.35L7.58283 2.32353C7.77221 2.11735 8.03935 2 8.3193 2H11.6807C11.9607 2 12.2278 2.11735 12.4172 2.32353L13.36 3.35L13.6524 3.67211C13.8419 3.88092 14.1108 4 14.3928 4H17C17.5523 4 18 4.44772 18 5V15ZM10 5C7.24 5 5 7.24 5 10C5 12.76 7.24 15 10 15C12.76 15 15 12.76 15 10C15 7.24 12.76 5 10 5ZM10 13.2C8.23 13.2 6.8 11.77 6.8 10C6.8 8.23 8.23 6.8 10 6.8C11.77 6.8 13.2 8.23 13.2 10C13.2 11.77 11.77 13.2 10 13.2Z" fill="white"/>
</svg>
